<svg width="120" height="108" viewBox="0 0 120 108" fill="none" xmlns="http://www.w3.org/2000/svg">
<path d="M118.693 59.6931C120.093 49.2398 117.48 38.5064 114.213 28.6131C112.44 23.0131 109.639 17.5998 105.253 13.6798C103.094 11.5771 100.751 9.67179 98.2526 7.98658L96.2927 6.95986C95.4532 6.58653 96.4792 7.05325 96.0128 6.86658L94.1462 5.83987C92.3728 4.71987 90.5994 3.59987 88.7327 2.57326C87.4508 1.65161 86.0742 0.869385 84.6263 0.239885C83.3439 -0.00805484 82.015 0.224513 80.893 0.893269C80.24 1.17321 79.1196 2.10654 80.24 2.57326H80.4266C80.7064 2.66654 80.1468 2.3866 80.5199 2.57326L81.1728 2.94659L83.3193 4.15987L88.2664 7.14653L91.6266 9.01319C94.1535 10.3609 96.4783 12.0575 98.5325 14.0532C100.745 15.8565 102.692 17.9615 104.319 20.3065C105.939 22.7515 107.255 25.3841 108.24 28.1465C109.665 32.2427 110.849 36.4187 111.786 40.6531C113.542 47.1565 114.049 53.9341 113.279 60.6264C113.093 62.213 118.506 61.1864 118.693 59.6931ZM19.2932 105.146C10.8932 107.573 6.03993 98.0526 4.35993 91.3333C1.84 81.4393 2.95999 70.333 6.59993 60.8131C8.26327 56.1682 10.9051 51.935 14.3466 48.3998C14.4556 48.3068 14.5355 48.1845 14.5769 48.0474C14.6184 47.9102 14.6195 47.7641 14.5802 47.6263C14.5409 47.4886 14.4627 47.3651 14.3551 47.2706C14.2475 47.176 14.1149 47.1145 13.9733 47.0932C13.6502 46.983 13.3023 46.9684 12.9712 47.0512C12.64 47.134 12.3398 47.3106 12.1066 47.5598C4.5466 54.7465 1.28 66.0397 0.533337 76.0264C0.015856 81.3407 0.39445 86.7041 1.65333 91.893C2.67994 95.9994 4.35994 100.199 7.15993 103.28C8.68733 105.064 10.6997 106.366 12.9529 107.029C15.206 107.691 17.6031 107.686 19.8532 107.013C21.4399 106.546 20.9732 104.586 19.2932 105.146Z" fill="#34C94B"/>
</svg>
